<svg id="Ebene_1" data-name="Ebene 1" xmlns="http://www.w3.org/2000/svg" xmlns:xlink="http://www.w3.org/1999/xlink" viewBox="0 0 1617.39 782.41"><defs><style>.cls-1{fill:none;}.cls-2{clip-path:url(#clip-path);}</style><clipPath id="clip-path" transform="translate(-607.49 -687.68)"><rect class="cls-1" width="2834.64" height="2081.48"/></clipPath></defs><title>ECM Logo Vektor_einfach</title><polygon points="195.88 780.1 192.18 677.17 171.5 677.17 133.84 751.09 98.2 677.17 77.83 677.17 70.88 780.1 87.4 780.1 88.48 704.49 124.43 779.33 134.62 777.79 171.65 707.42 174.12 780.1 195.88 780.1"/><path d="M911.29,1424.89H881.2L896.94,1386Zm40.9,42.89-42.28-102.92H893.24L844,1467.78h19.76l12.34-30.71h39.81l11.42,30.71Z" transform="translate(-607.49 -687.68)"/><polygon points="484.26 677.17 467.91 677.17 469.3 749.55 403.4 677.17 387.05 677.17 386.59 780.1 402.79 780.1 401.56 706.49 470.84 782.41 484.11 778.86 484.26 677.17"/><g class="cls-2"><path d="M1240.13,1364.86h-16.51V1419c0,11.11,1.23,23-9.26,30.09-5.71,3.86-13,5.25-19.76,5.25-13.42,0-23.76-4.48-24.69-19.29-.15-2.93-.15-5.86-.15-8.8v-61.41h-22.53v65.58c0,6.64.31,14.2,2.93,20.37,6.48,15.28,24.07,19,39,19,16.21,0,34.57-4,43.67-18.83,5.71-9.41,5.56-21.91,5.87-32.56Z" transform="translate(-607.49 -687.68)"/></g><polygon points="762.94 690.91 762.94 677.17 686.4 677.17 686.4 780.1 708.93 780.1 708.93 734.42 754.3 734.42 754.3 720.85 708.93 720.85 708.93 690.91 762.94 690.91"/><path d="M1456.31,1424.89h-30.09L1442,1386Zm40.9,42.89-42.28-102.92h-16.67L1389,1467.78h19.76l12.34-30.71H1461l11.41,30.71Z" transform="translate(-607.49 -687.68)"/><g class="cls-2"><path d="M1624.13,1369.8c0-2.32-1.39-2.47-3.25-3.09-9.41-2.93-19.59-3.86-29.47-3.86-34.26,0-63.88,17.9-63.88,55.09,0,34.41,26.08,51.85,58.33,51.85,6.78,0,28.08-2.16,33.64-5.09,1.23-.62,1.23-1.08,1.38-2.32.47-2.62,1.7-9.26,1.7-11.42,0-1.38-2.62-2.47-3.7-2.77a2.25,2.25,0,0,0-.93.3c-10,5.41-18.36,8.49-29.93,8.49-24.69,0-36.73-20.06-36.73-42.74s10.34-38.58,34.57-38.58c9.1,0,21.44,2.31,29.62,6.33,1.08.46,2.16,1.39,3.4,1.39,1.08,0,3.86-1.7,4-2.94l1.08-10c0-.15.16-.46.16-.61" transform="translate(-607.49 -687.68)"/></g><polygon points="1149.1 690.91 1149.1 677.17 1045.87 677.17 1045.87 690.91 1086.14 690.91 1086.14 780.1 1108.67 780.1 1108.67 690.91 1149.1 690.91"/><g class="cls-2"><path d="M1888.27,1364.86h-16.51V1419c0,11.11,1.24,23-9.25,30.09-5.72,3.86-13,5.25-19.76,5.25-13.42,0-23.76-4.48-24.69-19.29-.15-2.93-.15-5.86-.15-8.8v-61.41h-22.53v65.58c0,6.64.31,14.2,2.93,20.37,6.48,15.28,24.07,19,39,19,16.2,0,34.57-4,43.67-18.83,5.71-9.41,5.56-21.91,5.86-32.56Z" transform="translate(-607.49 -687.68)"/><path d="M2001.14,1393.87c0,15.89-11.73,19.29-25.31,19.29-3.7,0-7.56-.31-11.26-.31v-36.27c3.7,0,7.4-.15,11.11-.15,13,0,25.46,1.24,25.46,17.44m37,66.05-.47-.78c-6,0-10.18-.92-15-4.93-8.65-7.41-17.13-23.61-22.07-34,13.58-4,24.07-12.35,24.07-27.47,0-13.12-8.18-23-20.68-26.54-7.71-2.16-15.89-2.16-23.91-2.16-12.66,0-25.47.61-38.12.76v102.93h22.53v-43.36c1.85.16,3.55.31,5.4.31a72.35,72.35,0,0,0,8.18-.46c9.26,19.91,20.06,45.52,45.83,45.52,2.47,0,10.65-.46,12.19-2.16.62-.62,1.85-6.48,2-7.71" transform="translate(-607.49 -687.68)"/></g><polygon points="1545.71 780.1 1545.71 766.37 1491.71 766.37 1491.71 732.41 1538.31 732.41 1538.31 719.61 1491.71 719.61 1491.71 689.98 1543.87 689.98 1543.87 677.17 1469.18 677.17 1469.18 780.1 1545.71 780.1"/><g class="cls-2"><path d="M1553.27,1031.61c-2.26,43-4.52,86.75-4.52,129.73,0,18.86.76,38.47,1.5,57.33l-17.34,6.79-23.39-27.91c-52.79,30.92-86.73,45.25-150.08,45.25-162.92,0-268.52-110.11-268.52-272.27,0-154.63,108.61-282.85,267-282.85,56.57,0,104.09,13.57,150.09,46.76L1526.88,702l17.34,3.76c-3.77,59.6-3.77,118.43-3.77,178l-22.63,2.27c-5.27-58.08-11.31-118.43-66.37-150.86-23.39-13.57-46.76-21.12-73.91-21.12-128.23,0-151.61,156.89-151.61,254.94v5.28c0,69.4,11.32,145.57,60.34,198.37,24.89,27.15,58.08,41.49,95,41.49,27.91,0,54.31-7.55,77.69-23.39,53.56-37.72,64.87-98.06,71.65-158.4ZM629.21,1230.39v47H2203.06v-45.86H1956.37v-21.88l78.44-.75c0-154.1-.76-309-2.27-463.07-44.49,164.68-115.4,321-160.65,485.7h-24.13c-11.32-34-20.36-68.71-31.68-102.71L1687.85,740.51c-2.25,156.37-3,312-3,468.35l77.69.75v21.88h-181v-21.88l76.18-.75c0-160.9,0-321,2.27-481.94-18.87-9.07-53.56-6.8-74.67-6.8V698.24c29.4,0,58.07.76,87.49.76,40.73,0,80.69-.76,121.43-2.27,9.8,37.74,21.87,74.75,33.93,111.76l79.2,243.24c39.22-117.84,80-234.93,116.16-354.24h199.87v21.87l-76.18,1.5c1.51,162.42,1.51,325.59,2.27,488l75.42.75-.12,89.44H607.5v-90.16l76.94-1.51v-485l-71.66-.75V699.74c22.63.76,46,.76,68.64.76h54.3c98.82,0,197.62-2.26,295.68-4.53,0,49,3,98,5.27,147.08l-21.87,3.78-2.27-14.34c-15.08-95-63.35-106.34-153.11-106.34-18.09,0-36.95.74-55.81.74l-1.5,213.46c84.47-1.51,106.34-8.3,115.4-97.3h22.62c-3,46.76-3.77,93.52-3.77,140.23,0,25.57,0,50.38,1.5,76H914.48c-6.79-93.26-24.15-94-112.38-96.26l2.25,238.38h49c46.76,0,110.12,2.25,147.08-32.33,31.68-30.08,33.94-69.19,39.21-109.79l24.15,1.49c0,3.77-10.57,164-15.09,167-6.79,4.54-15.84,3.78-23.39,3.78-13.56,0-27.14-.76-40.72-1.51-34-1.51-67.12-1.51-101.06-1.51q-127.18,0-254.35,1.92" transform="translate(-607.49 -687.68)"/></g></svg>