<?xml version="1.0" encoding="UTF-8" standalone="no"?>
<!-- Generator: Adobe Illustrator 16.0.0, SVG Export Plug-In . SVG Version: 6.00 Build 0)  -->

<svg
   version="1.1"
   id="Ebene_1"
   x="0px"
   y="0px"
   width="723px"
   height="727px"
   viewBox="0 0 723 727"
   enable-background="new 0 0 723 727"
   xml:space="preserve"
   sodipodi:docname="logo_white.svg"
   inkscape:version="1.1 (c68e22c387, 2021-05-23)"
   xmlns:inkscape="http://www.inkscape.org/namespaces/inkscape"
   xmlns:sodipodi="http://sodipodi.sourceforge.net/DTD/sodipodi-0.dtd"
   xmlns="http://www.w3.org/2000/svg"
   xmlns:svg="http://www.w3.org/2000/svg"><defs
   id="defs29" /><sodipodi:namedview
   id="namedview27"
   pagecolor="#ffffff"
   bordercolor="#666666"
   borderopacity="1.0"
   inkscape:pageshadow="2"
   inkscape:pageopacity="0.0"
   inkscape:pagecheckerboard="0"
   showgrid="false"
   inkscape:zoom="1.0990371"
   inkscape:cx="361.68023"
   inkscape:cy="363.5"
   inkscape:window-width="1910"
   inkscape:window-height="2126"
   inkscape:window-x="0"
   inkscape:window-y="0"
   inkscape:window-maximized="0"
   inkscape:current-layer="Ebene_1" />


<path
   fill="none"
   stroke="#FFFFFF"
   stroke-width="44.8518"
   stroke-miterlimit="10"
   d="M698.461,700.219H24.797V26.547h673.664  V700.219z"
   id="path6" />



<g
   id="g18">
	<g
   id="g16">
		<path
   fill="#FFFFFF"
   d="M455.117,263.203c0,0,0.579,0.604,1.7,1.773c1.098,1.191,2.851,2.845,4.859,5.257    c4.171,4.677,9.938,11.917,15.831,22.062c0.729,1.272,1.477,2.579,2.244,3.919c0.702,1.375,1.422,2.785,2.159,4.229    c0.769,1.429,1.424,2.954,2.121,4.5c0.686,1.551,1.445,3.113,2.057,4.775c2.692,6.546,5.131,13.844,6.951,21.851    c1.807,8.002,3.126,16.689,3.533,25.938c0.368,9.24-0.008,19.047-1.662,29.145c-1.683,10.082-4.42,20.488-8.603,30.809    c-4.106,10.351-9.764,20.537-16.756,30.233c-0.84,1.24-1.788,2.4-2.715,3.588c-0.935,1.184-1.873,2.37-2.813,3.562    c-0.997,1.146-1.996,2.295-2.999,3.447l-1.512,1.734l-1.641,1.715c-1.022,1.065-2.048,2.134-3.077,3.205    c-1.055,1.074-2.285,2.172-3.432,3.263c-2.317,2.258-4.744,4.212-7.167,6.277c-4.957,3.955-10.152,7.793-15.753,11.131    c-2.745,1.771-5.664,3.262-8.551,4.868c-1.466,0.756-2.967,1.45-4.46,2.176l-2.248,1.076l-2.301,0.974    c-6.107,2.701-12.521,4.839-19.079,6.665c-1.651,0.418-3.306,0.838-4.963,1.258c-1.669,0.365-3.352,0.691-5.035,1.037    c-1.68,0.371-3.38,0.632-5.087,0.886c-1.707,0.239-3.41,0.576-5.135,0.73c-13.761,1.615-27.991,1.288-42.017-1.233    c-7.018-1.24-13.95-3.105-20.787-5.346c-6.821-2.305-13.436-5.256-19.891-8.54c-6.456-3.303-12.589-7.234-18.471-11.507    c-5.857-4.315-11.343-9.113-16.566-14.172l-1.946-2.041l-1.72-1.826l-0.86-0.913c-0.285-0.3-0.569-0.598-0.887-0.979l-1.849-2.154    l-1.841-2.159c-0.621-0.722-1.228-1.443-1.761-2.163l-3.322-4.327c-4.258-5.891-8.23-12-11.528-18.461    c-3.288-6.456-6.232-13.074-8.547-19.893c-0.641-1.683-1.083-3.431-1.623-5.143l-0.773-2.577    c-0.239-0.864-0.441-1.738-0.663-2.605c-0.42-1.741-0.893-3.467-1.261-5.215c-0.347-1.751-0.694-3.501-1.04-5.25    c-2.562-14.025-2.845-28.265-1.262-42.032c1.686-13.762,5.241-27.072,10.575-39.319l0.974-2.301l1.077-2.25    c0.726-1.494,1.423-2.994,2.169-4.465c1.609-2.887,3.1-5.809,4.872-8.555c3.34-5.603,7.181-10.8,11.139-15.76    c2.063-2.419,4.041-4.873,6.233-7.115c1.08-1.134,2.117-2.298,3.222-3.39c1.118-1.078,2.232-2.152,3.343-3.224l1.774-1.694    l1.666-1.444c1.109-0.961,2.214-1.919,3.316-2.874c1.211-0.959,2.417-1.916,3.62-2.869c1.209-0.945,2.401-1.921,3.633-2.753    c9.703-6.991,19.893-12.652,30.251-16.75c10.326-4.179,20.734-6.921,30.821-8.593c10.1-1.659,19.91-2.022,29.151-1.654    c9.251,0.405,17.937,1.734,25.941,3.54c8.007,1.822,15.307,4.257,21.851,6.956c1.662,0.611,3.225,1.371,4.775,2.056    c1.546,0.698,3.07,1.353,4.5,2.121c1.443,0.737,2.854,1.457,4.229,2.16c1.34,0.767,2.646,1.515,3.919,2.243    c0.636,0.365,1.263,0.725,1.881,1.081c0.61,0.367,1.194,0.761,1.779,1.132c1.17,0.743,2.306,1.465,3.406,2.165    c2.182,1.431,4.148,2.888,6.02,4.182c1.813,1.374,3.457,2.689,4.98,3.87c1.516,1.192,2.798,2.39,3.996,3.401    c2.412,2.008,4.067,3.762,5.258,4.859C454.514,262.625,455.117,263.203,455.117,263.203z M455.117,263.203    c0,0-0.608-0.574-1.788-1.685c-1.201-1.087-2.87-2.825-5.298-4.812c-4.731-4.087-11.946-9.908-22.215-15.526    c-10.215-5.616-23.457-11.239-39.439-14.103c-7.96-1.497-16.574-2.259-25.615-2.13c-9.039,0.111-18.518,1.206-28.105,3.487    c-9.588,2.273-19.254,5.807-28.66,10.515c-9.393,4.75-18.39,10.917-26.729,18.169c-1.081,0.879-2.036,1.833-3.029,2.765    c-0.988,0.938-1.979,1.878-2.974,2.822c-1.01,1.052-2.023,2.107-3.039,3.166l-1.527,1.59l-1.284,1.494    c-0.921,1.067-1.845,2.137-2.771,3.21c-0.913,1.083-1.754,2.232-2.637,3.346c-1.8,2.203-3.376,4.595-5.032,6.932    c-3.143,4.794-6.148,9.736-8.649,14.989c-1.352,2.57-2.422,5.293-3.612,7.958c-0.548,1.354-1.052,2.73-1.583,4.096l-0.786,2.052    l-0.685,2.096c-7.49,22.277-8.925,47.138-3.529,70.743c2.711,11.789,7.021,23.256,12.885,33.912l2.277,3.952    c0.774,1.309,1.638,2.563,2.432,3.861l1.219,1.93l1.317,1.866c0.891,1.234,1.721,2.514,2.657,3.716l2.817,3.603    c0.465,0.622,0.942,1.173,1.42,1.712l1.426,1.646l1.419,1.652c0.214,0.266,0.51,0.57,0.803,0.874l0.868,0.906l1.736,1.811    l0.867,0.906l0.43,0.456l0.215,0.229c-0.025-0.023,0.36,0.375-0.002,0.005c4.359,4.278,8.919,8.353,13.797,12.012    c1.204,0.936,2.482,1.766,3.717,2.656l1.866,1.318l1.929,1.22c1.287,0.811,2.541,1.679,3.852,2.449l3.954,2.277    c10.664,5.851,22.122,10.198,33.918,12.901c23.612,5.426,48.487,3.972,70.777-3.519l2.096-0.686l2.054-0.788    c1.37-0.527,2.736-1.054,4.101-1.579c2.665-1.19,5.389-2.264,7.96-3.618c5.255-2.505,10.199-5.513,14.994-8.66    c2.333-1.653,4.75-3.256,6.877-4.99c1.102-0.873,2.187-1.65,3.304-2.597c1.122-0.973,2.241-1.943,3.356-2.911l1.546-1.343    l1.523-1.459c1.017-0.972,2.03-1.94,3.04-2.906c0.962-1.015,1.922-2.025,2.877-3.033c0.952-1.014,1.931-2.003,2.803-3.074    c7.251-8.346,13.425-17.345,18.163-26.747c4.704-9.41,8.243-19.078,10.505-28.672c2.282-9.589,3.364-19.071,3.475-28.111    c0.13-9.043-0.644-17.657-2.142-25.617c-2.867-15.984-8.5-29.222-14.115-39.437c-5.624-10.266-11.443-17.482-15.531-22.211    c-1.986-2.428-3.727-4.097-4.813-5.298C455.69,263.812,455.117,263.203,455.117,263.203z"
   id="path14" />
	</g>
</g>

</svg>
