<?xml version="1.0" encoding="UTF-8" standalone="no"?>
<!-- Generator: Adobe Illustrator 16.0.0, SVG Export Plug-In . SVG Version: 6.00 Build 0)  -->

<svg
   version="1.1"
   id="Ebene_1"
   x="0px"
   y="0px"
   width="841.89px"
   height="165.754px"
   viewBox="0 0 841.89 165.754"
   enable-background="new 0 0 841.89 165.754"
   xml:space="preserve"
   sodipodi:docname="text.svg"
   inkscape:version="1.1 (c68e22c387, 2021-05-23)"
   xmlns:inkscape="http://www.inkscape.org/namespaces/inkscape"
   xmlns:sodipodi="http://sodipodi.sourceforge.net/DTD/sodipodi-0.dtd"
   xmlns="http://www.w3.org/2000/svg"
   xmlns:svg="http://www.w3.org/2000/svg"><defs
   id="defs61" /><sodipodi:namedview
   id="namedview59"
   pagecolor="#ffffff"
   bordercolor="#666666"
   borderopacity="1.0"
   inkscape:pageshadow="2"
   inkscape:pageopacity="0.0"
   inkscape:pagecheckerboard="0"
   showgrid="false"
   inkscape:zoom="1.7330055"
   inkscape:cx="420.94501"
   inkscape:cy="82.804124"
   inkscape:window-width="3840"
   inkscape:window-height="2136"
   inkscape:window-x="0"
   inkscape:window-y="0"
   inkscape:window-maximized="1"
   inkscape:current-layer="Ebene_1" />
<polygon
   fill="#1D1102"
   points="69.598,109.168 42.945,109.168 42.945,15.992 69.484,15.992 69.484,27.195 56.508,27.195   56.508,40.762 69.129,40.762 69.129,51.496 56.508,51.496 56.508,97.5 69.598,97.5 "
   id="polygon2" />
<path
   fill="#1D1102"
   d="M101.559,46.184V34.625c0-1.645-0.059-2.984-0.176-4.004c-0.117-1.027-0.371-1.793-0.766-2.309  c-0.395-0.504-0.98-0.855-1.77-1.063c-0.785-0.191-1.809-0.289-3.066-0.289c-1.336,0-2.379,0.098-3.125,0.289  c-0.75,0.207-1.316,0.559-1.711,1.063c-0.391,0.516-0.648,1.281-0.766,2.309c-0.117,1.02-0.176,2.359-0.176,4.004v9.199  c0,1.184,0.078,2.168,0.234,2.953c0.156,0.781,0.492,1.492,1.004,2.121s1.258,1.262,2.242,1.887  c0.984,0.633,2.336,1.379,4.066,2.238c4.086,2.125,7.313,3.938,9.672,5.426c2.359,1.5,4.129,3.016,5.309,4.543  c1.18,1.531,1.926,3.258,2.238,5.188c0.316,1.93,0.473,4.426,0.473,7.492v14.973c0,4.332-0.258,7.789-0.766,10.379  c-0.508,2.602-1.477,4.59-2.891,5.961c-1.414,1.375-3.402,2.281-5.957,2.719c-2.555,0.43-5.84,0.641-9.848,0.641  c-3.777,0-6.879-0.211-9.316-0.641c-2.438-0.438-4.367-1.344-5.781-2.719c-1.414-1.371-2.395-3.359-2.949-5.961  c-0.551-2.59-0.824-6.047-0.824-10.379V72.137h13.211v18.508c0,1.656,0.059,2.977,0.176,3.953c0.117,0.98,0.375,1.75,0.766,2.305  c0.395,0.547,0.965,0.922,1.711,1.121c0.75,0.191,1.75,0.293,3.008,0.293c2.516,0,4.109-0.477,4.777-1.414  c0.668-0.941,1-3.027,1-6.258V76.617c0-1.574-0.059-2.871-0.176-3.887c-0.117-1.027-0.43-1.934-0.941-2.719  c-0.512-0.789-1.277-1.512-2.301-2.184s-2.398-1.469-4.133-2.418c-4.082-2.125-7.285-3.93-9.605-5.422  c-2.32-1.5-4.066-3.008-5.25-4.539c-1.18-1.539-1.93-3.227-2.242-5.082c-0.313-1.844-0.473-4.105-0.473-6.777v-8.965  c0-4.324,0.258-7.781,0.766-10.375c0.512-2.598,1.477-4.594,2.891-6.016c1.418-1.426,3.383-2.34,5.898-2.77  c2.52-0.438,5.777-0.652,9.789-0.652c3.93,0,7.137,0.215,9.613,0.652c2.477,0.43,4.402,1.344,5.781,2.77  c1.375,1.422,2.316,3.418,2.832,6.016c0.508,2.594,0.762,6.051,0.762,10.375v11.559H101.559z"
   id="path4" />
<path
   fill="#1D1102"
   d="M138.008,73.902v35.266h-13.566V15.992h19.344c4.008,0,7.27,0.215,9.785,0.648  c2.512,0.434,4.504,1.32,5.957,2.652c1.453,1.336,2.438,3.246,2.949,5.719s0.766,5.801,0.766,9.969v19.934  c0,4.168-0.273,7.508-0.828,10.027c-0.543,2.512-1.551,4.438-3,5.777c-1.457,1.34-3.441,2.199-5.961,2.594  c-2.516,0.391-5.738,0.59-9.668,0.59H138.008z M138.008,27.781V62.93h5.777c1.176,0,2.16-0.094,2.949-0.293  c0.785-0.195,1.375-0.57,1.766-1.117c0.395-0.547,0.664-1.32,0.828-2.301c0.152-0.988,0.234-2.266,0.234-3.836V34.98  c0-1.496-0.063-2.711-0.176-3.656c-0.117-0.945-0.371-1.668-0.766-2.184s-0.965-0.867-1.711-1.063  c-0.746-0.191-1.793-0.297-3.125-0.297H138.008z"
   id="path6" />
<path
   fill="#1D1102"
   d="M184.828,109.168h-13.563V15.992h19.34c4.012,0,7.273,0.215,9.789,0.648s4.504,1.344,5.957,2.711  c1.457,1.379,2.438,3.305,2.949,5.781c0.512,2.48,0.766,5.758,0.766,9.848v9.785c0,2.445-0.254,4.43-0.766,5.961  c-0.512,1.527-1.176,2.773-2.008,3.715c-0.824,0.941-1.73,1.633-2.711,2.07c-0.98,0.43-1.945,0.758-2.887,1.004v0.465  c1.258,0.313,2.395,0.723,3.414,1.238c1.023,0.512,1.91,1.297,2.656,2.359c0.746,1.059,1.32,2.414,1.711,4.066  s0.59,3.777,0.59,6.367v37.156h-13.68V69.895c0-2.52-0.316-4.266-0.945-5.25s-2.125-1.48-4.48-1.48h-6.133V109.168z M184.828,52.441  h6.133c2.199,0,3.656-0.434,4.359-1.305c0.711-0.859,1.066-2.438,1.066-4.715V34.98c0-1.496-0.063-2.691-0.18-3.598  s-0.375-1.633-0.766-2.18s-0.98-0.918-1.77-1.125c-0.789-0.191-1.809-0.297-3.066-0.297h-5.777V52.441z"
   id="path8" />
<polygon
   fill="#1D1102"
   points="246.391,109.168 219.734,109.168 219.734,15.992 246.273,15.992 246.273,27.195 233.301,27.195   233.301,40.762 245.922,40.762 245.922,51.496 233.301,51.496 233.301,97.5 246.391,97.5 "
   id="polygon10" />
<path
   fill="#1D1102"
   d="M278.359,46.184V34.625c0-1.645-0.063-2.984-0.184-4.004c-0.121-1.027-0.371-1.793-0.77-2.309  c-0.387-0.504-0.977-0.855-1.766-1.063c-0.785-0.191-1.809-0.289-3.066-0.289c-1.336,0-2.379,0.098-3.125,0.289  c-0.746,0.207-1.313,0.559-1.711,1.063c-0.391,0.516-0.648,1.281-0.766,2.309c-0.117,1.02-0.18,2.359-0.18,4.004v9.199  c0,1.184,0.082,2.168,0.238,2.953c0.152,0.781,0.492,1.492,1,2.121c0.512,0.629,1.262,1.262,2.246,1.887  c0.98,0.633,2.336,1.379,4.066,2.238c4.086,2.125,7.313,3.938,9.672,5.426c2.359,1.5,4.129,3.016,5.309,4.543  c1.176,1.531,1.922,3.258,2.238,5.188s0.473,4.426,0.473,7.492v14.973c0,4.332-0.258,7.789-0.766,10.379  c-0.512,2.602-1.473,4.59-2.891,5.961c-1.414,1.375-3.402,2.281-5.953,2.719c-2.559,0.43-5.84,0.641-9.852,0.641  c-3.773,0-6.883-0.211-9.316-0.641c-2.441-0.438-4.367-1.344-5.781-2.719c-1.414-1.371-2.395-3.359-2.949-5.961  c-0.551-2.59-0.824-6.047-0.824-10.379V72.137h13.211v18.508c0,1.656,0.059,2.977,0.176,3.953c0.113,0.98,0.375,1.75,0.77,2.305  c0.395,0.547,0.961,0.922,1.711,1.121c0.746,0.191,1.746,0.293,3.004,0.293c2.516,0,4.109-0.477,4.781-1.414  c0.664-0.941,1.004-3.027,1.004-6.258V76.617c0-1.574-0.063-2.871-0.184-3.887c-0.121-1.027-0.434-1.934-0.941-2.719  c-0.512-0.789-1.277-1.512-2.301-2.184s-2.398-1.469-4.129-2.418c-4.09-2.125-7.293-3.93-9.609-5.422  c-2.32-1.5-4.07-3.008-5.246-4.539c-1.184-1.539-1.93-3.227-2.246-5.082c-0.316-1.844-0.473-4.105-0.473-6.777v-8.965  c0-4.324,0.258-7.781,0.77-10.375c0.512-2.598,1.473-4.594,2.891-6.016c1.414-1.426,3.379-2.34,5.898-2.77  c2.512-0.438,5.777-0.652,9.785-0.652c3.934,0,7.137,0.215,9.613,0.652c2.477,0.43,4.402,1.344,5.777,2.77  c1.379,1.422,2.32,3.418,2.832,6.016c0.512,2.594,0.766,6.051,0.766,10.375v11.559H278.359z"
   id="path12" />
<path
   fill="#1D1102"
   d="M325.176,46.184V34.625c0-1.645-0.059-2.984-0.176-4.004c-0.121-1.027-0.375-1.793-0.77-2.309  c-0.387-0.504-0.984-0.855-1.766-1.063c-0.789-0.191-1.809-0.289-3.07-0.289c-1.332,0-2.379,0.098-3.121,0.289  c-0.746,0.207-1.316,0.559-1.711,1.063c-0.395,0.516-0.648,1.281-0.77,2.309c-0.113,1.02-0.176,2.359-0.176,4.004v9.199  c0,1.184,0.078,2.168,0.234,2.953c0.156,0.781,0.492,1.492,1.004,2.121s1.262,1.262,2.242,1.887c0.98,0.633,2.34,1.379,4.07,2.238  c4.086,2.125,7.309,3.938,9.668,5.426c2.359,1.5,4.133,3.016,5.309,4.543c1.18,1.531,1.926,3.258,2.242,5.188  c0.313,1.93,0.473,4.426,0.473,7.492v14.973c0,4.332-0.258,7.789-0.77,10.379c-0.512,2.602-1.473,4.59-2.887,5.961  c-1.418,1.375-3.402,2.281-5.957,2.719c-2.559,0.43-5.836,0.641-9.852,0.641c-3.773,0-6.879-0.211-9.313-0.641  c-2.441-0.438-4.367-1.344-5.781-2.719c-1.414-1.371-2.398-3.359-2.949-5.961c-0.551-2.59-0.824-6.047-0.824-10.379V72.137h13.211  v18.508c0,1.656,0.055,2.977,0.176,3.953c0.117,0.98,0.371,1.75,0.766,2.305c0.391,0.547,0.965,0.922,1.707,1.121  c0.75,0.191,1.754,0.293,3.008,0.293c2.52,0,4.109-0.477,4.781-1.414c0.668-0.941,1-3.027,1-6.258V76.617  c0-1.574-0.059-2.871-0.176-3.887c-0.121-1.027-0.434-1.934-0.941-2.719c-0.516-0.789-1.277-1.512-2.301-2.184  c-1.027-0.672-2.402-1.469-4.129-2.418c-4.09-2.125-7.293-3.93-9.613-5.422c-2.316-1.5-4.066-3.008-5.246-4.539  c-1.184-1.539-1.93-3.227-2.242-5.082c-0.316-1.844-0.473-4.105-0.473-6.777v-8.965c0-4.324,0.254-7.781,0.766-10.375  c0.516-2.598,1.473-4.594,2.887-6.016c1.418-1.426,3.383-2.34,5.902-2.77c2.516-0.438,5.777-0.652,9.785-0.652  c3.93,0,7.137,0.215,9.613,0.652c2.48,0.43,4.406,1.344,5.785,2.77c1.371,1.422,2.316,3.418,2.828,6.016  c0.512,2.594,0.766,6.051,0.766,10.375v11.559H325.176z"
   id="path14" />
<path
   fill="#1D1102"
   d="M385.918,90.645c0,4.332-0.258,7.789-0.77,10.379c-0.512,2.602-1.496,4.578-2.945,5.961  c-1.461,1.375-3.445,2.281-5.961,2.719c-2.512,0.43-5.777,0.641-9.785,0.641c-4.012,0-7.273-0.211-9.793-0.641  c-2.512-0.438-4.48-1.344-5.898-2.719c-1.41-1.383-2.375-3.359-2.887-5.961c-0.508-2.59-0.766-6.047-0.766-10.379V34.391  c0-4.324,0.258-7.762,0.766-10.32c0.512-2.555,1.477-4.523,2.887-5.895c1.418-1.379,3.387-2.285,5.898-2.711  c2.52-0.438,5.781-0.652,9.793-0.652c4.008,0,7.273,0.215,9.785,0.652c2.516,0.426,4.5,1.332,5.961,2.711  c1.449,1.371,2.434,3.34,2.945,5.895c0.512,2.559,0.77,5.996,0.77,10.32V90.645z M372.234,34.391c0-3.145-0.355-5.172-1.063-6.078  s-2.277-1.352-4.715-1.352c-1.262,0-2.266,0.098-3.008,0.289c-0.746,0.207-1.34,0.578-1.77,1.125  c-0.434,0.551-0.711,1.313-0.828,2.305c-0.117,0.977-0.176,2.223-0.176,3.711v56.254c0,1.656,0.059,2.977,0.176,3.953  c0.117,0.98,0.395,1.75,0.828,2.305c0.43,0.547,1.023,0.922,1.77,1.121c0.742,0.191,1.746,0.293,3.008,0.293  c1.258,0,2.262-0.102,3.004-0.293c0.746-0.199,1.336-0.594,1.77-1.184c0.438-0.59,0.711-1.371,0.828-2.355s0.176-2.262,0.176-3.84  V34.391z"
   id="path16" />
<polygon
   fill="#1D1102"
   points="447.957,15.992 447.957,109.168 436.871,109.168 436.871,43.352 436.395,43.352 427.785,109.168   415.641,109.168 407.027,42.887 406.559,42.887 406.559,109.168 395.352,109.168 395.352,15.992 414.336,15.992 421.414,78.621   421.891,78.621 429.078,15.992 "
   id="polygon18" />
<path
   fill="#1D1102"
   d="M482.398,109.168V88.41h-11.453v20.758h-13.211V34.391c0-4.324,0.266-7.762,0.77-10.32  c0.52-2.555,1.473-4.523,2.895-5.895c1.41-1.379,3.359-2.281,5.836-2.711c2.473-0.438,5.637-0.652,9.496-0.652  c3.848,0,7.012,0.234,9.484,0.707c2.484,0.473,4.453,1.418,5.902,2.828c1.453,1.414,2.457,3.402,3.012,5.957  c0.547,2.559,0.828,5.918,0.828,10.086v74.777H482.398z M476.613,26.961c-1.18,0-2.145,0.098-2.895,0.289  c-0.75,0.207-1.332,0.559-1.762,1.063c-0.438,0.516-0.711,1.266-0.828,2.25c-0.129,0.977-0.184,2.262-0.184,3.828v42.926h11.453  V34.391c0-1.566-0.09-2.852-0.242-3.828c-0.156-0.984-0.43-1.734-0.82-2.25c-0.41-0.504-0.992-0.855-1.781-1.063  C478.773,27.059,477.789,26.961,476.613,26.961"
   id="path20" />
<path
   fill="#1D1102"
   d="M529.094,46.184V34.625c0-1.645-0.059-2.984-0.176-4.004c-0.117-1.027-0.371-1.793-0.77-2.309  c-0.379-0.504-0.977-0.855-1.762-1.063c-0.789-0.191-1.813-0.289-3.07-0.289c-1.336,0-2.375,0.098-3.125,0.289  c-0.742,0.207-1.316,0.559-1.715,1.063c-0.391,0.516-0.645,1.281-0.762,2.309c-0.117,1.02-0.176,2.359-0.176,4.004v9.199  c0,1.184,0.078,2.168,0.234,2.953c0.156,0.781,0.488,1.492,0.996,2.121c0.523,0.629,1.266,1.262,2.25,1.887  c0.98,0.633,2.336,1.379,4.059,2.238c4.094,2.125,7.316,3.938,9.672,5.426c2.359,1.5,4.133,3.016,5.309,4.543  c1.191,1.531,1.93,3.258,2.25,5.188c0.313,1.93,0.469,4.426,0.469,7.492v14.973c0,4.332-0.254,7.789-0.77,10.379  c-0.508,2.602-1.469,4.59-2.883,5.961c-1.422,1.375-3.398,2.281-5.961,2.719c-2.563,0.43-5.836,0.641-9.848,0.641  c-3.777,0-6.887-0.211-9.32-0.641c-2.438-0.438-4.363-1.344-5.777-2.719c-1.41-1.371-2.395-3.359-2.949-5.961  c-0.559-2.59-0.82-6.047-0.82-10.379V72.137h13.207v18.508c0,1.656,0.059,2.977,0.176,3.953c0.117,0.98,0.371,1.75,0.762,2.305  c0.398,0.547,0.973,0.922,1.715,1.121c0.75,0.191,1.742,0.293,3.008,0.293c2.512,0,4.102-0.477,4.773-1.414  c0.672-0.941,1.004-3.027,1.004-6.258V76.617c0-1.574-0.059-2.871-0.176-3.887c-0.117-1.027-0.438-1.934-0.945-2.719  c-0.508-0.789-1.277-1.512-2.301-2.184c-1.02-0.672-2.395-1.469-4.129-2.418c-4.082-2.125-7.293-3.93-9.602-5.422  c-2.328-1.5-4.074-3.008-5.25-4.539c-1.18-1.539-1.93-3.227-2.242-5.082c-0.313-1.844-0.477-4.105-0.477-6.777v-8.965  c0-4.324,0.254-7.781,0.77-10.375c0.508-2.598,1.469-4.594,2.895-6.016c1.41-1.426,3.379-2.34,5.891-2.77  c2.512-0.438,5.777-0.652,9.789-0.652c3.934,0,7.129,0.215,9.613,0.652c2.473,0.43,4.402,1.344,5.777,2.77  c1.371,1.422,2.328,3.418,2.832,6.016c0.508,2.594,0.77,6.051,0.77,10.375v11.559H529.094z"
   id="path22" />
<path
   fill="#1D1102"
   d="M576.031,55.504V34.391c0-1.566-0.059-2.852-0.168-3.828c-0.125-0.984-0.398-1.734-0.824-2.25  c-0.441-0.504-1.023-0.855-1.773-1.063c-0.75-0.191-1.715-0.289-2.883-0.289c-1.277,0-2.27,0.098-3.012,0.289  c-0.75,0.207-1.344,0.578-1.773,1.125c-0.438,0.551-0.711,1.313-0.828,2.305c-0.117,0.977-0.176,2.223-0.176,3.711v56.254  c0,1.656,0.059,2.977,0.176,3.953c0.117,0.98,0.391,1.75,0.828,2.305c0.43,0.547,1.023,0.922,1.773,1.121  c0.742,0.191,1.734,0.293,3.012,0.293c1.168,0,2.133-0.102,2.883-0.293c0.75-0.199,1.332-0.574,1.773-1.121  c0.426-0.555,0.699-1.324,0.824-2.305c0.109-0.977,0.168-2.297,0.168-3.953V69.066h13.102v21.578c0,4.332-0.266,7.789-0.77,10.379  c-0.52,2.602-1.48,4.59-2.895,5.961c-1.41,1.375-3.34,2.281-5.777,2.719c-2.441,0.43-5.539,0.641-9.309,0.641  c-4.023,0-7.289-0.211-9.801-0.641c-2.512-0.438-4.48-1.344-5.902-2.719c-1.41-1.371-2.367-3.359-2.883-5.961  c-0.516-2.59-0.758-6.047-0.758-10.379V34.391c0-4.246,0.27-7.664,0.816-10.262c0.555-2.594,1.559-4.582,3.008-5.953  c1.465-1.379,3.441-2.281,5.953-2.711c2.512-0.438,5.699-0.652,9.566-0.652c3.77,0,6.867,0.215,9.309,0.652  c2.438,0.43,4.367,1.332,5.777,2.711c1.414,1.371,2.375,3.34,2.895,5.895c0.504,2.559,0.77,5.996,0.77,10.32v21.113H576.031z"
   id="path24" />
<polygon
   fill="#1D1102"
   points="637.598,109.168 623.914,109.168 623.914,58.215 612.129,58.215 612.129,109.168 598.559,109.168   598.559,15.992 612.129,15.992 612.129,46.777 623.914,46.777 623.914,15.992 637.598,15.992 "
   id="polygon26" />
<rect
   x="648.215"
   y="15.992"
   fill="#1D1102"
   width="13.559"
   height="93.176"
   id="rect28" />
<polygon
   fill="#1D1102"
   points="698.699,109.168 684.652,51.023 684.188,51.023 684.188,109.168 672.508,109.168 672.508,15.992   687.488,15.992 700.93,75.789 701.406,75.789 701.406,15.992 713.203,15.992 713.203,109.168 "
   id="polygon30" />
<polygon
   fill="#1D1102"
   points="750.352,109.168 723.703,109.168 723.703,15.992 750.234,15.992 750.234,27.195 737.262,27.195   737.262,40.762 749.883,40.762 749.883,51.496 737.262,51.496 737.262,97.5 750.352,97.5 "
   id="polygon32" />
<polygon
   fill="#1D1102"
   points="784.551,109.168 770.523,51.023 770.055,51.023 770.055,109.168 758.367,109.168 758.367,15.992   773.348,15.992 786.801,75.789 787.266,75.789 787.266,15.992 799.063,15.992 799.063,109.168 "
   id="polygon34" />









<rect
   x="42.945"
   y="118.684"
   fill="#1d1102"
   width="99.916786"
   height="3.848"
   id="rect54"
   style="stroke-width:0.645328" />
<rect
   x="700.99078"
   y="118.684"
   fill="#1d1102"
   width="98.197281"
   height="3.848"
   id="rect56"
   style="stroke-width:0.639762" />
</svg>
