<svg id="Ebene_1" data-name="Ebene 1" xmlns="http://www.w3.org/2000/svg" viewBox="0 0 545.44 310.77"><defs><style>.cls-1,.cls-3,.cls-4,.cls-5{fill:#fff;}.cls-1,.cls-2{stroke:#e30613;}.cls-1,.cls-2,.cls-3{stroke-miterlimit:3.86;}.cls-1{stroke-width:7px;}.cls-2,.cls-6{fill:#e30613;}.cls-2,.cls-3{stroke-width:0.4px;}.cls-3{stroke:#fff;}.cls-5{fill-rule:evenodd;}</style></defs><title>Mahlkoenig Logo</title><path class="cls-1" d="M53.72,264.23c-14.84,15.64-24,25.28-23.95,25.28A17.47,17.47,0,0,0,25.17,301,16.31,16.31,0,0,0,41.48,317.3l506.45.23c8.38,0,15.68-7.62,15.68-16.62A17.47,17.47,0,0,0,559,289.42S302.37,17.84,302.37,17.84s-3.18-4.08-7.38-4.08-7.5,4.08-7.5,4.08-169.84,179-233.77,246.39" transform="translate(-21.67 -10.26)"/><path class="cls-2" d="M38.8,295.35s-2.23,2.77-2.23,4.89A6.74,6.74,0,0,0,43.19,307l282.05,0,221.46,0a6.8,6.8,0,0,0,6.62-6.82c0-2.12-2.23-4.89-2.23-4.89L412.63,148.93S389.94,163.09,367.72,195c0,0-29.24-12.7-72.57-12.61-43.33-.09-72.72,12.61-72.72,12.61-22.22-31.95-44.91-46.11-44.91-46.11L38.8,295.35Z" transform="translate(-21.67 -10.26)"/><path class="cls-2" d="M227.61,96.21c-24.75,26.25-37.54,39.71-40.16,42.8,0,0,24.77,20.31,36.36,34.15,11,13.14,23.14,2.27,21.7-10.43-1.71-15-17.9-66.52-17.9-66.52Z" transform="translate(-21.67 -10.26)"/><path class="cls-2" d="M239.19,83.42S249.94,134.09,259,152.5c4.84,9.87,28.62,23.73,30-14.66,1.64-45.59-1.39-104.95-1.39-104.95l-1.72,1.72L239.19,83.42Z" transform="translate(-21.67 -10.26)"/><path class="cls-2" d="M362.54,96.21c24.75,26.25,37.54,39.71,40.17,42.8,0,0-24.78,20.31-36.38,34.15-11,13.14-23.13,2.27-21.68-10.43,1.7-15,17.89-66.52,17.89-66.52Z" transform="translate(-21.67 -10.26)"/><path class="cls-2" d="M351,83.42s-10.75,50.67-19.78,69.08c-4.84,9.87-28.62,23.73-30-14.66-1.64-45.59,1.38-104.95,1.38-104.95l1.8,1.77L351,83.42Z" transform="translate(-21.67 -10.26)"/><path class="cls-3" d="M295,189c34.45-.19,67.81,11.34,67.81,11.34-2.95,4.54-8,14.75-8,14.75s-23.68-8.46-59.92-8.34c-36.24-.12-59.52,8.34-59.52,8.34s-5.57-10.45-8.51-15c0,0,33.72-11.29,68.18-11.1Z" transform="translate(-21.67 -10.26)"/><polygon class="cls-4" points="78.78 288.54 88.08 288.54 88.08 250.76 101.14 288.54 109.08 288.54 122.14 250.76 122.14 288.54 131.44 288.54 131.44 238.15 118.59 238.15 105.15 276.3 91.7 238.15 78.78 238.15 78.78 288.54 78.78 288.54"/><path class="cls-5" d="M157.66,298.8h10.27l5.59-13h17.83l5.44,13h10.27l-21.15-50.39h-7.25l-21,50.39Zm19.26-21.69,5.37-15.48,5.36,15.48Z" transform="translate(-21.67 -10.26)"/><polygon class="cls-4" points="188.93 288.54 198.22 288.54 198.22 267.38 216.28 267.38 216.28 288.54 225.57 288.54 225.57 238.15 216.28 238.15 216.28 258.69 198.22 258.69 198.22 238.15 188.93 238.15 188.93 288.54 188.93 288.54"/><polygon class="cls-4" points="235.78 288.54 260.49 288.54 260.49 279.85 245.08 279.85 245.08 238.15 235.78 238.15 235.78 288.54 235.78 288.54"/><polygon class="cls-4" points="266.38 288.54 275.68 288.54 275.68 266.4 291.54 288.54 302.49 288.54 283.53 262.93 302.49 238.15 291.54 238.15 275.68 259.9 275.68 206.07 266.38 206.07 266.38 288.54 266.38 288.54"/><polygon class="cls-4" points="362.03 288.54 371.32 288.54 371.32 251.9 392.47 288.54 402.9 288.54 402.9 238.15 393.61 238.15 393.61 274.79 372.61 238.15 362.03 238.15 362.03 288.54 362.03 288.54"/><polygon class="cls-4" points="412.2 288.54 421.5 288.54 421.5 238.15 412.2 238.15 412.2 288.54 412.2 288.54"/><path class="cls-4" d="M471.13,281.87h21.08a16.51,16.51,0,0,1-14.81,9.22c-10.19,0-17.9-7.48-17.9-17.6a17.36,17.36,0,0,1,17.38-17.3,16.15,16.15,0,0,1,13.44,7h11.1c-3.17-9-13.67-15.79-24.39-15.79A26.68,26.68,0,0,0,450.21,274c0,14.2,12.24,25.76,27.34,25.76,14.2,0,26.44-11.78,26.44-25.38v-1.21H471.13v8.68Z" transform="translate(-21.67 -10.26)"/><polygon class="cls-4" points="331.27 234.83 340.34 234.83 340.34 225.77 331.27 225.77 331.27 234.83 331.27 234.83"/><path class="cls-4" d="M350.38,247.43a26.18,26.18,0,1,0,26.36,26.21,26.3,26.3,0,0,0-26.36-26.21Z" transform="translate(-21.67 -10.26)"/><polygon class="cls-4" points="317.14 234.83 326.21 234.83 326.21 225.77 317.14 225.77 317.14 234.83 317.14 234.83"/><path class="cls-6" d="M350.38,256.11a17.5,17.5,0,1,1-17,17.61c0-9.75,7.63-17.61,17-17.61Z" transform="translate(-21.67 -10.26)"/></svg>